:SAMPLES-PER-SECOND 30
:FULLY-SPECIFIED
:DEGREES
19
root  7.62296 40.7888 -3.00337 -76.0994 -88.1273 73.3413
RightUpLeg  0.76509 -9.54525 -6.63441
RightLeg  9.18754 -4.62876 2.26356
RightFoot  -6.4612 -0.029298 -0.339519
RightToes  0.000482159 0.542163 -0.142577
Spine  5.21781 -0.740849 -1.68935
Spine1  5.33488 -1.26368 2.18679
HEad  14.8219 -1.65555 -2.64703
LeftShoulder1  3.63723 -6.75945 -29.338
LeftArm  -29.9521 21.1813 -15.6744
LeftForeArm  28.1888 -26.9375 -4.27946
LeftHand  -0.25398 0.0180481 5.50724
RightShoulder  1.96272 3.64569 21.1164
RightArm  -9.6924 -13.1531 12.2384
RightForeArm  -0.692558 14.7663 5.57813
RightHand  -1.93637 6.41679 -19.2681
LeftUpLeg  3.39776 5.30111 2.05137
LeftLeg  3.55986 16.3229 -3.73361
LeftFoot  -4.31519 0.00328096 0.403186
LeftToes  1.06248e-005 4.65855e-005 -8.18498e-006
20
root  7.44908 40.7613 -3.04862 -68.4684 -87.8218 65.7575
RightUpLeg  0.821681 -9.92924 -6.84306
RightLeg  9.75256 -4.55266 2.16882
RightFoot  -7.16657 -0.0396371 -0.248054
RightToes  0.000482159 0.542163 -0.142577
Spine  4.87565 -0.933166 -1.41192
Spine1  6.2936 -1.44425 2.09203
HEad  15.334 -1.54788 -2.82841
LeftShoulder1  4.14718 -7.30801 -32.2946
LeftArm  -28.2587 22.3351 -19.0825
LeftForeArm  30.7503 -27.1802 -4.19808
LeftHand  -0.25398 0.0180481 5.50724
RightShoulder  2.23482 4.10406 23.1611
RightArm  -7.39745 -15.8219 15.9151
RightForeArm  1.61841 15.2302 5.58641
RightHand  -1.8564 6.26621 -18.7308
LeftUpLeg  3.46468 5.23255 1.8862
LeftLeg  3.85447 16.0553 -3.59662
LeftFoot  -4.75116 0.00796447 0.374168
LeftToes  1.06248e-005 4.65855e-005 -8.18498e-006
21
root  7.23714 40.7278 -3.1115 -65.1876 -87.6219 62.4106
RightUpLeg  0.991526 -10.2198 -6.91709
RightLeg  10.3838 -4.41695 2.0058
RightFoot  -7.86887 -0.0437633 -0.318609
RightToes  0.000482159 0.542163 -0.142577
Spine  4.87953 -1.11931 -0.968013
Spine1  6.86012 -1.5733 1.85608
HEad  15.4534 -1.38247 -3.07493
LeftShoulder1  4.42973 -7.48295 -34.2388
LeftArm  -25.898 23.7947 -23.4136
LeftForeArm  32.1421 -26.2449 -3.92454
LeftHand  -0.25398 0.0180481 5.50724
RightShoulder  2.44763 4.39123 24.8717
RightArm  -5.72742 -18.9845 20.4501
RightForeArm  3.58921 15.7328 5.53316
RightHand  -1.80505 6.08471 -18.5059
LeftUpLeg  3.60845 5.36776 1.89477
LeftLeg  4.42653 15.5988 -3.37061
LeftFoot  -5.35359 0.0418432 -0.187223
LeftToes  1.06248e-005 4.65855e-005 -8.18498e-006
22
root  6.99414 40.6721 -3.18205 -64.466 -87.5461 61.4792
RightUpLeg  1.26725 -10.4638 -6.91456
RightLeg  11.1782 -4.13487 1.80827
RightFoot  -8.69024 -0.050645 -0.351154
RightToes  0.000482159 0.542163 -0.142577
Spine  5.32505 -1.32454 -0.363375
Spine1  6.97164 -1.67382 1.5391
HEad  15.3159 -1.02046 -3.34587
LeftShoulder1  4.50086 -7.33088 -35.432
LeftArm  -23.3025 25.6985 -28.3195
LeftForeArm  32.533 -24.5481 -3.54563
LeftHand  -0.25398 0.0180481 5.50724
RightShoulder  2.61109 4.51839 26.4826
RightArm  -5.51667 -22.4538 25.5829
RightForeArm  5.24572 16.0554 5.42336
RightHand  -1.70575 5.60477 -18.2457
LeftUpLeg  3.6407 6.11579 2.03059
LeftLeg  5.75108 14.7371 -2.81093
LeftFoot  -6.19136 0.0791655 -0.928708
LeftToes  1.06248e-005 4.65855e-005 -8.18498e-006
23
root  6.72549 40.563 -3.24383 -62.2089 -87.579 58.9256
RightUpLeg  1.54833 -10.9057 -6.91699
RightLeg  12.3309 -3.62546 1.71971
RightFoot  -9.86152 -0.0644979 -0.162352
RightToes  0.000482159 0.542163 -0.142577
Spine  6.02953 -1.6125 0.323109
Spine1  6.89335 -1.88775 1.52062
HEad  14.99 -0.380291 -3.74557
LeftShoulder1  4.49375 -7.01554 -36.5724
LeftArm  -20.8292 27.9449 -33.1282
LeftForeArm  32.041 -22.5187 -3.18185
LeftHand  -0.25398 0.0180481 5.50724
RightShoulder  2.7274 4.51804 27.9819
RightArm  -6.99971 -25.8609 30.9327
RightForeArm  7.15584 15.9863 5.27984
RightHand  -1.51721 4.82434 -17.4731
LeftUpLeg  3.20032 8.38357 2.20114
LeftLeg  8.37939 12.527 -1.47664
LeftFoot  -7.60614 0.0874113 -1.26466
LeftToes  1.06248e-005 4.65855e-005 -8.18498e-006
